<svg width="190" height="160" viewBox="0 0 190 160" fill="none" xmlns="http://www.w3.org/2000/svg">
<g clip-path="url(#clip0_2019_8145)">
<path d="M23.6768 159.636H21.9856L19.2407 153.271H4.51421L1.76926 159.636H0L10.7717 134.654H12.9832L23.6638 159.636H23.6768ZM5.16467 151.777H18.5902L11.8904 136.252L5.16467 151.777Z" fill="white"/>
<path d="M47.8481 156.96L48.1603 158.506C47.4578 158.831 44.7129 160 40.719 160C32.3411 160 26.604 154.752 26.604 147.1C26.604 139.448 32.198 134.277 40.3418 134.277C43.3989 134.277 45.9748 134.901 47.731 135.732L47.5099 137.421C45.5585 136.434 42.9956 135.836 40.3027 135.836C33.1737 135.836 28.2952 140.422 28.2952 147.1C28.2952 153.777 33.3428 158.428 40.693 158.428C44.6348 158.428 47.0155 157.376 47.8351 156.96H47.8481Z" fill="white"/>
<path d="M74.738 159.636H73.0468L70.3019 153.271H55.5884L52.8435 159.636H51.0742L61.8459 134.654H64.0574L74.738 159.636ZM56.2259 151.777H69.6514L62.9517 136.252L56.2259 151.777Z" fill="white"/>
<path d="M90.3103 134.654C98.8573 134.654 103.137 139.838 103.137 147.165C103.137 154.947 98.8313 159.636 90.2452 159.636H80.4883V134.654H90.3233H90.3103ZM82.1665 136.148V158.155H90.4924C97.3222 158.155 101.433 154.271 101.433 147.178C101.433 140.085 97.3222 136.161 90.4924 136.161H82.1665V136.148Z" fill="white"/>
<path d="M110.93 159.636V134.654H128.466V136.148H112.621V146.022H126.489V147.516H112.621V158.155H128.883V159.649H110.917L110.93 159.636Z" fill="white"/>
<path d="M149.606 150.49L138.236 136.798V159.623H136.545V134.641H138.639L149.762 148.165L160.794 134.641H162.915V159.623H161.223V136.798L149.97 150.49H149.606Z" fill="white"/>
<path d="M170.681 134.654L179.345 147.957L188.022 134.654H190.013L180.191 149.698V159.636H178.5V149.698L168.678 134.654H170.681Z" fill="white"/>
<path d="M158.751 87.015V107.814H164.827V77.3755H159.584L150.009 88.6649L153.535 92.913L158.751 87.028V87.015ZM136.558 77.3755H131.315V107.814H137.39V87.015L148.123 99.0319L151.518 95.2124L136.558 77.3755Z" fill="white"/>
<path d="M183.912 77.3755V91.0682H189.974V77.3755H183.912ZM183.912 94.1082V107.827H189.974V94.1082H183.912Z" fill="white"/>
<path d="M0.0258789 102.566V107.814H22.4928V102.566H0.0258789ZM6.1012 99.5388V77.3628H0.0258789V99.5258H6.1012V99.5388Z" fill="white"/>
<path fill-rule="evenodd" clip-rule="evenodd" d="M65.0328 94.0954C64.0441 102.605 56.3297 108.698 47.8086 107.697C40.6535 106.866 35.0205 101.228 34.1879 94.0954H39.99C40.9787 99.3959 46.0914 102.891 51.4122 101.903C55.38 101.163 58.4892 98.0578 59.2307 94.0954H65.0458H65.0328ZM49.6169 76.7651C57.7216 76.7651 64.4604 83.0009 65.0979 91.0685H59.3218C58.6453 85.7161 53.7538 81.9097 48.381 82.5852C43.9449 83.1438 40.4454 86.6385 39.886 91.0685H34.1099C34.7473 82.9879 41.4991 76.7651 49.6039 76.7651H49.6169Z" fill="white"/>
<path fill-rule="evenodd" clip-rule="evenodd" d="M113.076 94.0954C112.088 102.605 104.373 108.698 95.8521 107.697C88.697 106.866 83.064 101.228 82.2314 94.0954H88.0465C89.0352 99.3959 94.1478 102.891 99.4686 101.903C103.436 101.163 106.546 98.0578 107.287 94.0954H113.102H113.076ZM97.6473 76.7651C105.752 76.7651 112.504 82.9879 113.141 91.0685H107.365C106.689 85.7161 101.797 81.9097 96.4245 82.5852C91.9883 83.1438 88.4888 86.6385 87.9294 91.0685H82.1533C82.7908 83.0009 89.5426 76.7781 97.6473 76.7651Z" fill="white"/>
<path fill-rule="evenodd" clip-rule="evenodd" d="M95.0067 50.9386C103.944 50.9386 111.203 39.5323 111.203 25.4628C111.203 11.3933 103.944 0 95.0067 0C86.0694 0 78.8102 11.4063 78.8102 25.4758C78.8102 39.5453 86.0564 50.9516 95.0067 50.9516V50.9386ZM69.4956 25.4628C69.4956 34.3878 80.9177 41.6369 95.0067 41.6369C109.096 41.6369 120.518 34.4008 120.518 25.4628C120.518 16.5248 109.096 9.28873 95.0067 9.28873C80.9177 9.28873 69.4956 16.5248 69.4956 25.4628Z" fill="white"/>
</g>
<defs>
<clipPath id="clip0_2019_8145">
<rect width="190" height="160" fill="white"/>
</clipPath>
</defs>
</svg>
